<mxfile host="65bd71144e">
    <diagram id="nhE3GIlVimfKaPKoIuDz" name="Page-1">
        <mxGraphModel dx="1693" dy="740" grid="1" gridSize="10" guides="1" tooltips="1" connect="1" arrows="1" fold="1" page="1" pageScale="1" pageWidth="827" pageHeight="1169" math="0" shadow="0">
            <root>
                <mxCell id="0"/>
                <mxCell id="1" parent="0"/>
                <mxCell id="2" value="" style="sketch=0;outlineConnect=0;gradientColor=none;fontColor=#545B64;strokeColor=none;fillColor=#879196;dashed=0;verticalLabelPosition=bottom;verticalAlign=top;align=center;html=1;fontSize=12;fontStyle=0;aspect=fixed;shape=mxgraph.aws4.illustration_desktop;pointerEvents=1" parent="1" vertex="1">
                    <mxGeometry x="100" y="90" width="197.8" height="180" as="geometry"/>
                </mxCell>
                <mxCell id="3" value="lspci" style="align=left;fontSize=16;fontStyle=1;strokeColor=none;fillColor=none;fontColor=#4D4D4D;spacingTop=-8;resizable=0;" parent="1" vertex="1">
                    <mxGeometry x="88.9" y="330" width="180" height="30" as="geometry"/>
                </mxCell>
                <mxCell id="15" style="edgeStyle=orthogonalEdgeStyle;html=1;exitX=0;exitY=0.5;exitDx=0;exitDy=0;exitPerimeter=0;strokeWidth=3;endArrow=blockThin;endFill=1;strokeColor=default;" parent="1" source="4" target="2" edge="1">
                    <mxGeometry relative="1" as="geometry">
                        <Array as="points">
                            <mxPoint x="40" y="460"/>
                            <mxPoint x="40" y="320"/>
                            <mxPoint x="199" y="320"/>
                        </Array>
                    </mxGeometry>
                </mxCell>
                <mxCell id="21" style="edgeStyle=orthogonalEdgeStyle;html=1;entryX=0;entryY=0.5;entryDx=0;entryDy=0;entryPerimeter=0;strokeWidth=3;endArrow=blockThin;endFill=1;strokeColor=default;" parent="1" source="4" target="60" edge="1">
                    <mxGeometry relative="1" as="geometry">
                        <mxPoint x="360" y="160" as="targetPoint"/>
                    </mxGeometry>
                </mxCell>
                <mxCell id="22" style="edgeStyle=orthogonalEdgeStyle;html=1;strokeWidth=3;endArrow=blockThin;endFill=1;strokeColor=default;" parent="1" source="4" target="12" edge="1">
                    <mxGeometry relative="1" as="geometry"/>
                </mxCell>
                <mxCell id="4" value="" style="shape=table;html=1;whiteSpace=wrap;startSize=0;container=1;collapsible=0;childLayout=tableLayout;fillColor=none;align=left;spacingLeft=10;strokeColor=none;rounded=1;arcSize=11;fontColor=#FFFFFF;resizable=0;points=[[0.25,0,0],[0.5,0,0],[0.75,0,0],[1,0.25,0],[1,0.5,0],[1,0.75,0],[0.75,1,0],[0.5,1,0],[0.25,1,0],[0,0.75,0],[0,0.5,0],[0,0.25,0]];" parent="1" vertex="1">
                    <mxGeometry x="88.9" y="360" width="180" height="200" as="geometry"/>
                </mxCell>
                <mxCell id="5" value="PCI bridge" style="shape=partialRectangle;html=1;whiteSpace=wrap;connectable=0;fillColor=#1E4074;top=0;left=0;bottom=0;right=0;overflow=hidden;pointerEvents=1;align=left;spacingLeft=10;strokeColor=none;fontColor=#FFFFFF;" parent="4" vertex="1">
                    <mxGeometry width="180" height="30" as="geometry"/>
                </mxCell>
                <mxCell id="6" value="RAID buf controller" style="shape=partialRectangle;html=1;whiteSpace=wrap;connectable=0;fillColor=#3162AF;top=0;left=0;bottom=0;right=0;overflow=hidden;pointerEvents=1;align=left;spacingLeft=10;fontColor=#FFFFFF;" parent="4" vertex="1">
                    <mxGeometry y="30" width="180" height="30" as="geometry"/>
                </mxCell>
                <mxCell id="7" value="NVIDIA Corporation&lt;br&gt;3D controller" style="shape=partialRectangle;html=1;whiteSpace=wrap;connectable=0;fillColor=#52A2D8;top=0;left=0;bottom=0;right=0;overflow=hidden;pointerEvents=1;align=left;spacingLeft=10;fontColor=#FFFFFF;" parent="4" vertex="1">
                    <mxGeometry y="60" width="180" height="60" as="geometry"/>
                </mxCell>
                <mxCell id="9" value="Inter Corporation PCI bridge" style="shape=partialRectangle;html=1;whiteSpace=wrap;connectable=0;fillColor=#6B6477;top=0;left=0;bottom=0;right=0;overflow=hidden;pointerEvents=1;align=left;spacingLeft=10;fontColor=#FFFFFF;" parent="4" vertex="1">
                    <mxGeometry y="120" width="180" height="30" as="geometry"/>
                </mxCell>
                <mxCell id="10" value="Intel Corporation &lt;br&gt;SATA controller" style="shape=partialRectangle;html=1;whiteSpace=wrap;connectable=0;fillColor=#8B8496;top=0;left=0;bottom=0;right=0;overflow=hidden;pointerEvents=1;align=left;spacingLeft=10;fontColor=#FFFFFF;" parent="4" vertex="1">
                    <mxGeometry y="150" width="180" height="50" as="geometry"/>
                </mxCell>
                <object placeholders="1" c4Name="GPU device (NVIDIA Corp.)" c4Type="Virtual Screen" c4Technology="e.g. Xorg :5&#10;- :5.0 is screen 0 at PCI:210:0:0&#10;- :5.1 is screen 1 at PCI:210:0:0&#10;- :5.2 is screen 2 at PCI:210:0:0" c4Description="Virtual screens binds with device" label="&lt;font style=&quot;font-size: 12px;&quot;&gt;&lt;b style=&quot;font-size: 12px;&quot;&gt;%c4Name%&lt;/b&gt;&lt;/font&gt;&lt;div style=&quot;font-size: 12px;&quot;&gt;[%c4Type%: %c4Technology%]&lt;/div&gt;&lt;br style=&quot;font-size: 12px;&quot;&gt;&lt;div style=&quot;font-size: 12px;&quot;&gt;&lt;font style=&quot;font-size: 12px;&quot;&gt;%c4Description%&lt;/font&gt;&lt;/div&gt;" id="12">
                    <mxCell style="rounded=1;whiteSpace=wrap;html=1;labelBackgroundColor=none;fillColor=#63BEF2;fontColor=#ffffff;align=center;arcSize=7;strokeColor=#2086C9;metaEdit=1;resizable=0;points=[[0.25,0,0],[0.5,0,0],[0.75,0,0],[1,0.25,0],[1,0.5,0],[1,0.75,0],[0.75,1,0],[0.5,1,0],[0.25,1,0],[0,0.75,0],[0,0.5,0],[0,0.25,0]];fontFamily=Comic Sans MS;imageHeight=24;fontSize=12;" parent="1" vertex="1">
                        <mxGeometry x="360" y="280" width="240" height="120" as="geometry"/>
                    </mxCell>
                </object>
                <object placeholders="1" c4Name="Virtual Display" c4Type="ContainerScopeBoundary" c4Application="Virtual screens" label="&lt;font style=&quot;font-size: 16px&quot;&gt;&lt;b&gt;&lt;div style=&quot;text-align: left&quot;&gt;%c4Name%&lt;/div&gt;&lt;/b&gt;&lt;/font&gt;&lt;div style=&quot;text-align: left&quot;&gt;[%c4Application%]&lt;/div&gt;" id="17">
                    <mxCell style="rounded=1;fontSize=11;whiteSpace=wrap;html=1;dashed=1;arcSize=20;fillColor=none;strokeColor=#666666;fontColor=#333333;labelBackgroundColor=none;align=left;verticalAlign=bottom;labelBorderColor=none;spacingTop=0;spacing=10;dashPattern=8 4;metaEdit=1;rotatable=0;perimeter=rectanglePerimeter;noLabel=0;labelPadding=0;allowArrows=0;connectable=0;expand=0;recursiveResize=0;editable=1;pointerEvents=0;absoluteArcSize=1;points=[[0.25,0,0],[0.5,0,0],[0.75,0,0],[1,0.25,0],[1,0.5,0],[1,0.75,0],[0.75,1,0],[0.5,1,0],[0.25,1,0],[0,0.75,0],[0,0.5,0],[0,0.25,0]];" parent="1" vertex="1">
                        <mxGeometry x="340" y="270" width="280" height="290" as="geometry"/>
                    </mxCell>
                </object>
                <mxCell id="51" style="edgeStyle=orthogonalEdgeStyle;html=1;entryX=-0.012;entryY=0.656;entryDx=0;entryDy=0;entryPerimeter=0;strokeWidth=3;fontSize=12;fontColor=#000000;endArrow=blockThin;endFill=1;strokeColor=default;" parent="1" source="18" target="43" edge="1">
                    <mxGeometry relative="1" as="geometry">
                        <Array as="points">
                            <mxPoint x="395" y="505"/>
                        </Array>
                    </mxGeometry>
                </mxCell>
                <mxCell id="18" value="" style="sketch=0;outlineConnect=0;fontColor=#232F3E;gradientColor=none;fillColor=#D45B07;strokeColor=none;dashed=0;verticalLabelPosition=bottom;verticalAlign=top;align=center;html=1;fontSize=12;fontStyle=0;aspect=fixed;pointerEvents=1;shape=mxgraph.aws4.container_registry_image;" parent="1" vertex="1">
                    <mxGeometry x="370" y="440" width="50" height="50" as="geometry"/>
                </mxCell>
                <mxCell id="48" style="edgeStyle=orthogonalEdgeStyle;html=1;entryX=-0.003;entryY=0.525;entryDx=0;entryDy=0;entryPerimeter=0;strokeWidth=3;fontSize=12;fontColor=#000000;endArrow=blockThin;endFill=1;strokeColor=default;" parent="1" source="19" target="41" edge="1">
                    <mxGeometry relative="1" as="geometry">
                        <Array as="points">
                            <mxPoint x="470" y="480"/>
                            <mxPoint x="650" y="480"/>
                            <mxPoint x="650" y="324"/>
                        </Array>
                    </mxGeometry>
                </mxCell>
                <mxCell id="19" value="" style="sketch=0;outlineConnect=0;fontColor=#232F3E;gradientColor=none;fillColor=#BF0816;strokeColor=none;dashed=0;verticalLabelPosition=bottom;verticalAlign=top;align=center;html=1;fontSize=12;fontStyle=0;aspect=fixed;shape=mxgraph.aws4.amplify_aws_amplify_studio;" parent="1" vertex="1">
                    <mxGeometry x="440" y="420" width="60" height="55" as="geometry"/>
                </mxCell>
                <mxCell id="47" style="edgeStyle=orthogonalEdgeStyle;html=1;entryX=0;entryY=0.55;entryDx=0;entryDy=0;entryPerimeter=0;strokeWidth=3;fontSize=12;fontColor=#000000;endArrow=blockThin;endFill=1;strokeColor=default;" parent="1" source="20" target="39" edge="1">
                    <mxGeometry relative="1" as="geometry"/>
                </mxCell>
                <mxCell id="20" value="" style="sketch=0;outlineConnect=0;fontColor=#232F3E;gradientColor=none;fillColor=#067F68;strokeColor=none;dashed=0;verticalLabelPosition=bottom;verticalAlign=top;align=center;html=1;fontSize=12;fontStyle=0;aspect=fixed;shape=mxgraph.aws4.workspaces_workspaces_web;" parent="1" vertex="1">
                    <mxGeometry x="520" y="410" width="60" height="56.92" as="geometry"/>
                </mxCell>
                <mxCell id="30" value="" style="html=1;shadow=0;dashed=0;shape=mxgraph.bootstrap.rrect;rSize=5;strokeColor=#DFDFDF;html=1;whiteSpace=wrap;fillColor=#FFFFFF;fontColor=#495057;" parent="1" vertex="1">
                    <mxGeometry x="1040" y="80" width="250" height="480" as="geometry"/>
                </mxCell>
                <mxCell id="31" value="&lt;div style=&quot;font-size: 13px;&quot;&gt;&lt;font style=&quot;font-size: 13px;&quot;&gt;Section &quot;Device&quot;&lt;/font&gt;&lt;/div&gt;&lt;div style=&quot;font-size: 13px;&quot;&gt;&lt;font style=&quot;font-size: 13px;&quot;&gt;&amp;nbsp; &amp;nbsp; Identifier&amp;nbsp; &amp;nbsp; &amp;nbsp;&quot;Device0&quot;&lt;/font&gt;&lt;/div&gt;&lt;div style=&quot;font-size: 13px;&quot;&gt;&lt;font style=&quot;font-size: 13px;&quot;&gt;&amp;nbsp; &amp;nbsp; Driver&amp;nbsp; &amp;nbsp; &amp;nbsp; &amp;nbsp; &amp;nbsp;&quot;nvidia&quot;&lt;/font&gt;&lt;/div&gt;&lt;div style=&quot;font-size: 13px;&quot;&gt;&lt;font style=&quot;font-size: 13px;&quot;&gt;&amp;nbsp; &amp;nbsp; VendorName&amp;nbsp; &amp;nbsp; &amp;nbsp;&quot;NVIDIA Corporation&quot;&lt;/font&gt;&lt;/div&gt;&lt;div style=&quot;font-size: 13px;&quot;&gt;&lt;font style=&quot;font-size: 13px;&quot;&gt;&amp;nbsp; &amp;nbsp; BusID&amp;nbsp; &amp;nbsp; &amp;nbsp; &amp;nbsp; &amp;nbsp; &quot;PCI:210:0:0&quot;&lt;/font&gt;&lt;/div&gt;&lt;div style=&quot;font-size: 13px;&quot;&gt;&lt;font style=&quot;font-size: 13px;&quot;&gt;&amp;nbsp; &amp;nbsp; Screen&amp;nbsp; &amp;nbsp; &amp;nbsp; &amp;nbsp; &amp;nbsp;0&lt;/font&gt;&lt;/div&gt;&lt;div style=&quot;font-size: 13px;&quot;&gt;&lt;font style=&quot;font-size: 13px;&quot;&gt;EndSection&lt;/font&gt;&lt;/div&gt;" style="html=1;shadow=0;dashed=0;shape=mxgraph.bootstrap.topButton;rSize=5;perimeter=none;whiteSpace=wrap;resizeWidth=1;align=left;spacing=10;verticalAlign=top;fillColor=#3162af;strokeColor=#0085FC;fontColor=#ffffff;" parent="30" vertex="1">
                    <mxGeometry width="250" height="160" relative="1" as="geometry"/>
                </mxCell>
                <mxCell id="32" value="Screen 0" style="strokeColor=none;fillColor=none;fontColor=#ffffff;fontSize=11;" parent="31" vertex="1">
                    <mxGeometry x="1" width="90" height="40" relative="1" as="geometry">
                        <mxPoint x="-90" as="offset"/>
                    </mxGeometry>
                </mxCell>
                <mxCell id="33" value="&lt;div style=&quot;font-size: 13px;&quot;&gt;&lt;font style=&quot;font-size: 13px;&quot;&gt;Section &quot;Device&quot;&lt;/font&gt;&lt;/div&gt;&lt;div style=&quot;font-size: 13px;&quot;&gt;&lt;font style=&quot;font-size: 13px;&quot;&gt;&amp;nbsp; &amp;nbsp; Identifier&amp;nbsp; &amp;nbsp; &amp;nbsp;&quot;Device1&quot;&lt;/font&gt;&lt;/div&gt;&lt;div style=&quot;font-size: 13px;&quot;&gt;&lt;font style=&quot;font-size: 13px;&quot;&gt;&amp;nbsp; &amp;nbsp; Driver&amp;nbsp; &amp;nbsp; &amp;nbsp; &amp;nbsp; &amp;nbsp;&quot;nvidia&quot;&lt;/font&gt;&lt;/div&gt;&lt;div style=&quot;font-size: 13px;&quot;&gt;&lt;font style=&quot;font-size: 13px;&quot;&gt;&amp;nbsp; &amp;nbsp; VendorName&amp;nbsp; &amp;nbsp; &amp;nbsp;&quot;NVIDIA Corporation&quot;&lt;/font&gt;&lt;/div&gt;&lt;div style=&quot;font-size: 13px;&quot;&gt;&lt;font style=&quot;font-size: 13px;&quot;&gt;&amp;nbsp; &amp;nbsp; BusID&amp;nbsp; &amp;nbsp; &amp;nbsp; &amp;nbsp; &amp;nbsp; &quot;PCI:210:0:0&quot;&lt;/font&gt;&lt;/div&gt;&lt;div style=&quot;font-size: 13px;&quot;&gt;&lt;font style=&quot;font-size: 13px;&quot;&gt;&amp;nbsp; &amp;nbsp; Screen&amp;nbsp; &amp;nbsp; &amp;nbsp; &amp;nbsp; &amp;nbsp;1&lt;/font&gt;&lt;/div&gt;&lt;div style=&quot;font-size: 13px;&quot;&gt;&lt;font style=&quot;font-size: 13px;&quot;&gt;EndSection&lt;/font&gt;&lt;/div&gt;" style="strokeColor=inherit;fillColor=inherit;gradientColor=inherit;fontColor=inherit;html=1;shadow=0;dashed=0;perimeter=none;whiteSpace=wrap;resizeWidth=1;align=left;spacing=10;rounded=0;" parent="30" vertex="1">
                    <mxGeometry width="250" height="160" relative="1" as="geometry">
                        <mxPoint y="160" as="offset"/>
                    </mxGeometry>
                </mxCell>
                <mxCell id="34" value="Screen 1" style="strokeColor=none;fillColor=none;fontColor=#6C767D;fontSize=11;" parent="33" vertex="1">
                    <mxGeometry x="1" width="90" height="40" relative="1" as="geometry">
                        <mxPoint x="-90" as="offset"/>
                    </mxGeometry>
                </mxCell>
                <mxCell id="35" value="&lt;div style=&quot;font-size: 13px;&quot;&gt;Section &quot;Device&quot;&lt;/div&gt;&lt;div style=&quot;font-size: 13px;&quot;&gt;&amp;nbsp; &amp;nbsp; Identifier&amp;nbsp; &amp;nbsp; &amp;nbsp;&quot;Device2&quot;&lt;/div&gt;&lt;div style=&quot;font-size: 13px;&quot;&gt;&amp;nbsp; &amp;nbsp; Driver&amp;nbsp; &amp;nbsp; &amp;nbsp; &amp;nbsp; &amp;nbsp;&quot;nvidia&quot;&lt;/div&gt;&lt;div style=&quot;font-size: 13px;&quot;&gt;&amp;nbsp; &amp;nbsp; VendorName&amp;nbsp; &amp;nbsp; &amp;nbsp;&quot;NVIDIA Corporation&quot;&lt;/div&gt;&lt;div style=&quot;font-size: 13px;&quot;&gt;&amp;nbsp; &amp;nbsp; BusID&amp;nbsp; &amp;nbsp; &amp;nbsp; &amp;nbsp; &amp;nbsp; &quot;PCI:210:0:0&quot;&lt;/div&gt;&lt;div style=&quot;font-size: 13px;&quot;&gt;&amp;nbsp; &amp;nbsp; Screen&amp;nbsp; &amp;nbsp; &amp;nbsp; &amp;nbsp; &amp;nbsp;2&lt;/div&gt;&lt;div style=&quot;font-size: 13px;&quot;&gt;EndSection&lt;/div&gt;" style="strokeColor=inherit;fillColor=inherit;gradientColor=inherit;fontColor=inherit;html=1;shadow=0;dashed=0;shape=mxgraph.bootstrap.bottomButton;rSize=5;perimeter=none;whiteSpace=wrap;resizeWidth=1;resizeHeight=0;align=left;spacing=10;" parent="30" vertex="1">
                    <mxGeometry y="1" width="250" height="160" relative="1" as="geometry">
                        <mxPoint y="-160" as="offset"/>
                    </mxGeometry>
                </mxCell>
                <mxCell id="36" value="Screen 2" style="strokeColor=none;fillColor=none;fontColor=#6C767D;fontSize=11;" parent="35" vertex="1">
                    <mxGeometry x="1" width="90" height="40" relative="1" as="geometry">
                        <mxPoint x="-90" as="offset"/>
                    </mxGeometry>
                </mxCell>
                <mxCell id="38" value="" style="html=1;shadow=0;dashed=0;shape=mxgraph.bootstrap.rrect;rSize=5;strokeColor=none;html=1;whiteSpace=wrap;fillColor=#FFFFFF;fontColor=#495057;fontSize=11;" parent="1" vertex="1">
                    <mxGeometry x="680" y="80" width="340" height="480" as="geometry"/>
                </mxCell>
                <mxCell id="39" value="&lt;div style=&quot;font-size: 11px;&quot;&gt;&lt;div style=&quot;font-size: 11px;&quot;&gt;Section &quot;Screen&quot;&lt;/div&gt;&lt;div style=&quot;font-size: 11px;&quot;&gt;&amp;nbsp; &amp;nbsp; Identifier&amp;nbsp; &amp;nbsp; &amp;nbsp;&quot;Screen0&quot;&lt;/div&gt;&lt;div style=&quot;font-size: 11px;&quot;&gt;&amp;nbsp; &amp;nbsp; Device&amp;nbsp; &amp;nbsp; &amp;nbsp; &amp;nbsp; &amp;nbsp;&quot;Device0&quot;&lt;/div&gt;&lt;div style=&quot;font-size: 11px;&quot;&gt;&amp;nbsp; &amp;nbsp; DefaultDepth&amp;nbsp; &amp;nbsp; 24&lt;/div&gt;&lt;div style=&quot;font-size: 11px;&quot;&gt;&amp;nbsp; &amp;nbsp; Option&amp;nbsp; &amp;nbsp; &amp;nbsp; &amp;nbsp; &amp;nbsp;&quot;AllowEmptyInitialConfiguration&quot; &quot;True&quot;&lt;/div&gt;&lt;div style=&quot;font-size: 11px;&quot;&gt;&amp;nbsp; &amp;nbsp; SubSection&amp;nbsp; &amp;nbsp; &amp;nbsp;&quot;Display&quot;&lt;/div&gt;&lt;div style=&quot;font-size: 11px;&quot;&gt;&amp;nbsp; &amp;nbsp; &amp;nbsp; &amp;nbsp; Depth&amp;nbsp; &amp;nbsp; &amp;nbsp; &amp;nbsp;24&lt;/div&gt;&lt;div style=&quot;font-size: 11px;&quot;&gt;&amp;nbsp; &amp;nbsp; &amp;nbsp; &amp;nbsp; Virtual 1024 768&lt;/div&gt;&lt;div style=&quot;font-size: 11px;&quot;&gt;&amp;nbsp; &amp;nbsp; EndSubSection&lt;/div&gt;&lt;div style=&quot;font-size: 11px;&quot;&gt;EndSection&lt;/div&gt;&lt;/div&gt;" style="html=1;shadow=0;dashed=0;shape=mxgraph.bootstrap.topButton;rSize=5;perimeter=none;whiteSpace=wrap;resizeWidth=1;align=left;spacing=10;verticalAlign=top;fillColor=#067f68;strokeColor=none;fontColor=#ffffff;strokeWidth=4;portConstraintRotation=0;perimeterSpacing=1;fontSize=11;" parent="38" vertex="1">
                    <mxGeometry width="340" height="160" relative="1" as="geometry"/>
                </mxCell>
                <mxCell id="40" value="Screen 0" style="strokeColor=none;fillColor=none;fontColor=#ffffff;fontSize=11;" parent="39" vertex="1">
                    <mxGeometry x="1" width="90" height="40" relative="1" as="geometry">
                        <mxPoint x="-90" as="offset"/>
                    </mxGeometry>
                </mxCell>
                <mxCell id="41" value="&lt;div style=&quot;font-size: 11px;&quot;&gt;&lt;div style=&quot;font-size: 11px;&quot;&gt;Section &quot;Screen&quot;&lt;/div&gt;&lt;div style=&quot;font-size: 11px;&quot;&gt;&amp;nbsp; &amp;nbsp; Identifier&amp;nbsp; &amp;nbsp; &amp;nbsp;&quot;Screen1&quot;&lt;/div&gt;&lt;div style=&quot;font-size: 11px;&quot;&gt;&amp;nbsp; &amp;nbsp; Device&amp;nbsp; &amp;nbsp; &amp;nbsp; &amp;nbsp; &amp;nbsp;&quot;Device1&quot;&lt;/div&gt;&lt;div style=&quot;font-size: 11px;&quot;&gt;&amp;nbsp; &amp;nbsp; DefaultDepth&amp;nbsp; &amp;nbsp; 24&lt;/div&gt;&lt;div style=&quot;font-size: 11px;&quot;&gt;&amp;nbsp; &amp;nbsp; Option&amp;nbsp; &amp;nbsp; &amp;nbsp; &amp;nbsp; &amp;nbsp;&quot;AllowEmptyInitialConfiguration&quot; &quot;True&quot;&lt;/div&gt;&lt;div style=&quot;font-size: 11px;&quot;&gt;&amp;nbsp; &amp;nbsp; SubSection&amp;nbsp; &amp;nbsp; &amp;nbsp;&quot;Display&quot;&lt;/div&gt;&lt;div style=&quot;font-size: 11px;&quot;&gt;&amp;nbsp; &amp;nbsp; &amp;nbsp; &amp;nbsp; Depth&amp;nbsp; &amp;nbsp; &amp;nbsp; &amp;nbsp;24&lt;/div&gt;&lt;div style=&quot;font-size: 11px;&quot;&gt;&amp;nbsp; &amp;nbsp; &amp;nbsp; &amp;nbsp; Virtual 1024 768&lt;/div&gt;&lt;div style=&quot;font-size: 11px;&quot;&gt;&amp;nbsp; &amp;nbsp; EndSubSection&lt;/div&gt;&lt;div style=&quot;font-size: 11px;&quot;&gt;EndSection&lt;/div&gt;&lt;/div&gt;" style="strokeColor=none;fillColor=#6f3439;fontColor=#ffffff;html=1;shadow=0;dashed=0;perimeter=none;whiteSpace=wrap;resizeWidth=1;align=left;spacing=10;rounded=0;fontSize=11;" parent="38" vertex="1">
                    <mxGeometry width="340" height="160" relative="1" as="geometry">
                        <mxPoint y="160" as="offset"/>
                    </mxGeometry>
                </mxCell>
                <mxCell id="42" value="Screen 1" style="strokeColor=none;fillColor=none;fontColor=#ffffff;fontSize=11;" parent="41" vertex="1">
                    <mxGeometry x="1" width="90" height="40" relative="1" as="geometry">
                        <mxPoint x="-90" as="offset"/>
                    </mxGeometry>
                </mxCell>
                <mxCell id="43" value="&lt;div style=&quot;font-size: 11px;&quot;&gt;&lt;div style=&quot;font-size: 11px;&quot;&gt;Section &quot;Screen&quot;&lt;/div&gt;&lt;div style=&quot;font-size: 11px;&quot;&gt;&amp;nbsp; &amp;nbsp; Identifier&amp;nbsp; &amp;nbsp; &amp;nbsp;&quot;Screen2&quot;&lt;/div&gt;&lt;div style=&quot;font-size: 11px;&quot;&gt;&amp;nbsp; &amp;nbsp; Device&amp;nbsp; &amp;nbsp; &amp;nbsp; &amp;nbsp; &amp;nbsp;&quot;Device2&quot;&lt;/div&gt;&lt;div style=&quot;font-size: 11px;&quot;&gt;&amp;nbsp; &amp;nbsp; DefaultDepth&amp;nbsp; &amp;nbsp; 24&lt;/div&gt;&lt;div style=&quot;font-size: 11px;&quot;&gt;&amp;nbsp; &amp;nbsp; Option&amp;nbsp; &amp;nbsp; &amp;nbsp; &amp;nbsp; &amp;nbsp;&quot;AllowEmptyInitialConfiguration&quot; &quot;True&quot;&lt;/div&gt;&lt;div style=&quot;font-size: 11px;&quot;&gt;&amp;nbsp; &amp;nbsp; SubSection&amp;nbsp; &amp;nbsp; &amp;nbsp;&quot;Display&quot;&lt;/div&gt;&lt;div style=&quot;font-size: 11px;&quot;&gt;&amp;nbsp; &amp;nbsp; &amp;nbsp; &amp;nbsp; Depth&amp;nbsp; &amp;nbsp; &amp;nbsp; &amp;nbsp;24&lt;/div&gt;&lt;div style=&quot;font-size: 11px;&quot;&gt;&amp;nbsp; &amp;nbsp; &amp;nbsp; &amp;nbsp; Virtual 1024 768&lt;/div&gt;&lt;div style=&quot;font-size: 11px;&quot;&gt;&amp;nbsp; &amp;nbsp; EndSubSection&lt;/div&gt;&lt;div style=&quot;font-size: 11px;&quot;&gt;EndSection&lt;/div&gt;&lt;/div&gt;" style="strokeColor=none;fillColor=#9c5421;fontColor=#ffffff;html=1;shadow=0;dashed=0;shape=mxgraph.bootstrap.bottomButton;rSize=5;perimeter=none;whiteSpace=wrap;resizeWidth=1;resizeHeight=0;align=left;spacing=10;fontSize=11;" parent="38" vertex="1">
                    <mxGeometry y="1" width="340" height="160" relative="1" as="geometry">
                        <mxPoint y="-160" as="offset"/>
                    </mxGeometry>
                </mxCell>
                <mxCell id="44" value="Screen 2" style="strokeColor=none;fillColor=none;fontColor=#ffffff;fontSize=11;" parent="43" vertex="1">
                    <mxGeometry x="1" width="90" height="40" relative="1" as="geometry">
                        <mxPoint x="-90" as="offset"/>
                    </mxGeometry>
                </mxCell>
                <mxCell id="55" style="edgeStyle=orthogonalEdgeStyle;html=1;entryX=1;entryY=0.563;entryDx=0;entryDy=0;entryPerimeter=0;strokeWidth=3;fontSize=12;fontColor=#000000;endArrow=blockThin;endFill=1;strokeColor=default;" parent="1" source="52" target="31" edge="1">
                    <mxGeometry relative="1" as="geometry">
                        <Array as="points">
                            <mxPoint x="1340" y="50"/>
                            <mxPoint x="1340" y="170"/>
                        </Array>
                    </mxGeometry>
                </mxCell>
                <mxCell id="52" value="PCI:210:0:0" style="html=1;shadow=0;dashed=0;shape=mxgraph.bootstrap.rrect;rSize=5;strokeColor=none;strokeWidth=1;fillColor=#3162ae;fontColor=#FFFFFF;whiteSpace=wrap;align=left;verticalAlign=middle;spacingLeft=10;fontStyle=0;fontSize=14;" parent="1" vertex="1">
                    <mxGeometry x="1040" y="30" width="250" height="40" as="geometry"/>
                </mxCell>
                <mxCell id="53" value="3" style="html=1;shadow=0;dashed=0;shape=mxgraph.bootstrap.rrect;rSize=5;strokeColor=none;strokeWidth=1;fillColor=#ffffff;fontColor=#000000;whiteSpace=wrap;align=center;verticalAlign=middle;fontSize=12;" parent="52" vertex="1">
                    <mxGeometry x="1" y="0.5" width="20" height="20" relative="1" as="geometry">
                        <mxPoint x="-30" y="-10" as="offset"/>
                    </mxGeometry>
                </mxCell>
                <mxCell id="57" style="edgeStyle=orthogonalEdgeStyle;html=1;entryX=1.004;entryY=0.5;entryDx=0;entryDy=0;entryPerimeter=0;strokeWidth=3;fontSize=12;fontColor=#000000;endArrow=blockThin;endFill=1;strokeColor=default;" parent="1" source="52" target="33" edge="1">
                    <mxGeometry relative="1" as="geometry">
                        <mxPoint x="1290" y="50" as="sourcePoint"/>
                        <mxPoint x="1290" y="170.07999999999993" as="targetPoint"/>
                        <Array as="points">
                            <mxPoint x="1340" y="50"/>
                            <mxPoint x="1340" y="320"/>
                        </Array>
                    </mxGeometry>
                </mxCell>
                <mxCell id="58" style="edgeStyle=orthogonalEdgeStyle;html=1;entryX=1;entryY=0.5;entryDx=0;entryDy=0;entryPerimeter=0;strokeWidth=3;fontSize=12;fontColor=#000000;endArrow=blockThin;endFill=1;strokeColor=default;" parent="1" source="52" target="35" edge="1">
                    <mxGeometry relative="1" as="geometry">
                        <mxPoint x="1290" y="50" as="sourcePoint"/>
                        <mxPoint x="1291" y="320" as="targetPoint"/>
                        <Array as="points">
                            <mxPoint x="1340" y="50"/>
                            <mxPoint x="1340" y="480"/>
                        </Array>
                    </mxGeometry>
                </mxCell>
                <object placeholders="1" c4Type="Screen GUI" c4Container="Container" c4Technology="e.g. Xorg :localhost" c4Description="Display port in $DISPLAY=localhost:13.0" label="&lt;font style=&quot;font-size: 16px&quot;&gt;&lt;b&gt;%c4Type%&lt;/b&gt;&lt;/font&gt;&lt;div&gt;[%c4Container%:&amp;nbsp;%c4Technology%]&lt;/div&gt;&lt;br&gt;&lt;div&gt;&lt;font style=&quot;font-size: 11px&quot;&gt;&lt;font color=&quot;#E6E6E6&quot;&gt;%c4Description%&lt;/font&gt;&lt;/font&gt;&lt;/div&gt;" id="59">
                    <mxCell style="shape=mxgraph.c4.webBrowserContainer2;whiteSpace=wrap;html=1;boundedLbl=1;rounded=0;labelBackgroundColor=none;strokeColor=#118ACD;fillColor=#23A2D9;strokeColor=#118ACD;strokeColor2=#0E7DAD;fontSize=12;fontColor=#ffffff;align=center;metaEdit=1;points=[[0.5,0,0],[1,0.25,0],[1,0.5,0],[1,0.75,0],[0.5,1,0],[0,0.75,0],[0,0.5,0],[0,0.25,0]];resizable=0;fontFamily=Comic Sans MS;" vertex="1" parent="1">
                        <mxGeometry x="40" y="40" width="240" height="160" as="geometry"/>
                    </mxCell>
                </object>
                <object placeholders="1" c4Name="GPU device (NVIDIA Corp.)" c4Type="Virtual Screen" c4Technology="e.g. Xorg :5&#10;- :5.3 is screen 0 at PCI:79:0:0&#10;- :5.4 is screen 1 at PCI:79:0:0&#10;- :5.5 is screen 2 at PCI:79:0:0" c4Description="Virtual screens binds with device" label="&lt;font style=&quot;font-size: 12px;&quot;&gt;&lt;b style=&quot;font-size: 12px;&quot;&gt;%c4Name%&lt;/b&gt;&lt;/font&gt;&lt;div style=&quot;font-size: 12px;&quot;&gt;[%c4Type%: %c4Technology%]&lt;/div&gt;&lt;br style=&quot;font-size: 12px;&quot;&gt;&lt;div style=&quot;font-size: 12px;&quot;&gt;&lt;font style=&quot;font-size: 12px;&quot;&gt;%c4Description%&lt;/font&gt;&lt;/div&gt;" id="60">
                    <mxCell style="rounded=1;whiteSpace=wrap;html=1;labelBackgroundColor=none;fillColor=#e1d5e7;align=center;arcSize=7;strokeColor=#9673a6;metaEdit=1;resizable=0;points=[[0.25,0,0],[0.5,0,0],[0.75,0,0],[1,0.25,0],[1,0.5,0],[1,0.75,0],[0.75,1,0],[0.5,1,0],[0.25,1,0],[0,0.75,0],[0,0.5,0],[0,0.25,0]];fontFamily=Comic Sans MS;imageHeight=24;fontSize=12;" vertex="1" parent="1">
                        <mxGeometry x="360" y="100" width="240" height="120" as="geometry"/>
                    </mxCell>
                </object>
                <mxCell id="61" value="PCI:79:0:0" style="html=1;shadow=0;dashed=0;shape=mxgraph.bootstrap.rrect;rSize=5;strokeColor=#9673a6;strokeWidth=1;fillColor=#e1d5e7;whiteSpace=wrap;align=left;verticalAlign=middle;spacingLeft=10;fontStyle=0;fontSize=14;" vertex="1" parent="1">
                    <mxGeometry x="480" y="210" width="130" height="40" as="geometry"/>
                </mxCell>
                <mxCell id="62" value="3" style="html=1;shadow=0;dashed=0;shape=mxgraph.bootstrap.rrect;rSize=5;strokeColor=none;strokeWidth=1;fillColor=#ffffff;fontColor=#000000;whiteSpace=wrap;align=center;verticalAlign=middle;fontSize=12;" vertex="1" parent="61">
                    <mxGeometry x="1" y="0.5" width="20" height="20" relative="1" as="geometry">
                        <mxPoint x="-30" y="-10" as="offset"/>
                    </mxGeometry>
                </mxCell>
            </root>
        </mxGraphModel>
    </diagram>
</mxfile>